<svg xmlns="http://www.w3.org/2000/svg" xmlns:xlink="http://www.w3.org/1999/xlink" width="405px" height="304px" viewBox="0 0 405 304" version="1.1">
<defs>
<clipPath id="clip1">
  <path d="M 140.164062 93.078125 L 264.472656 93.078125 L 264.472656 210.304688 L 140.164062 210.304688 Z M 140.164062 93.078125 "/>
</clipPath>
<clipPath id="clip2">
  <path d="M 50.6875 56.847656 L 207 56.847656 L 207 246.539062 L 50.6875 246.539062 Z M 50.6875 56.847656 "/>
</clipPath>
<clipPath id="clip3">
  <path d="M 50.6875 56.847656 L 211 56.847656 L 211 246.539062 L 50.6875 246.539062 Z M 50.6875 56.847656 "/>
</clipPath>
</defs>
<g id="surface1">
<rect x="0" y="0" width="405" height="304" style="fill:rgb(6.666667%,5.882353%,6.27451%);fill-opacity:1;stroke:none;"/>
<g clip-path="url(#clip1)" clip-rule="nonzero">
<path style=" stroke:none;fill-rule:nonzero;fill:rgb(80.784314%,94.509804%,58.823529%);fill-opacity:1;" d="M 164.789062 210.308594 C 159.878906 210.308594 155.546875 209.296875 151.796875 207.28125 C 148.046875 205.285156 145.179688 201.832031 143.1875 196.914062 C 141.171875 192 140.164062 185.335938 140.164062 176.925781 L 140.164062 174.59375 L 143.265625 174.59375 L 143.265625 176.925781 C 143.265625 184.6875 144.207031 190.769531 146.097656 195.167969 C 147.957031 199.566406 150.503906 202.671875 153.738281 204.484375 C 156.96875 206.296875 160.652344 207.203125 164.789062 207.203125 C 171.644531 207.203125 177.332031 205.222656 181.855469 201.261719 C 186.382812 197.328125 188.644531 190.316406 188.644531 180.222656 C 188.644531 173.496094 187.519531 168.347656 185.269531 164.773438 C 182.996094 161.230469 179.957031 158.484375 176.15625 156.546875 C 172.328125 154.605469 168.152344 152.792969 163.628906 151.109375 C 158.972656 149.300781 154.941406 147.253906 151.527344 144.976562 C 148.085938 142.726562 145.4375 139.789062 143.574219 136.167969 C 141.6875 132.542969 140.742188 127.691406 140.742188 121.609375 C 140.742188 112.941406 142.65625 106.019531 146.484375 100.84375 C 150.285156 95.667969 156.644531 93.078125 165.566406 93.078125 C 173.324219 93.078125 179.464844 95.214844 183.988281 99.484375 C 188.515625 103.753906 190.777344 109.769531 190.777344 117.535156 L 190.777344 125.296875 L 187.675781 125.296875 L 187.675781 118.308594 C 187.675781 111.324219 185.734375 105.886719 181.855469 102.007812 C 177.976562 98.125 172.546875 96.183594 165.566406 96.183594 C 157.550781 96.183594 151.925781 98.605469 148.695312 103.441406 C 145.460938 108.308594 143.847656 114.363281 143.847656 121.609375 C 143.847656 127.5625 144.855469 132.21875 146.871094 135.582031 C 148.863281 138.949219 151.511719 141.535156 154.824219 143.347656 C 158.105469 145.160156 161.625 146.839844 165.371094 148.394531 C 171.578125 150.851562 176.621094 153.246094 180.5 155.574219 C 184.378906 157.902344 187.222656 160.90625 189.03125 164.582031 C 190.84375 168.28125 191.746094 173.496094 191.746094 180.222656 C 191.746094 187.597656 190.558594 193.488281 188.179688 197.886719 C 185.773438 202.285156 182.542969 205.457031 178.480469 207.394531 C 174.398438 209.335938 169.832031 210.308594 164.789062 210.308594 Z M 206.679688 208.558594 L 203.382812 208.558594 L 232.664062 93.855469 L 235.1875 93.855469 L 264.46875 208.558594 L 261.171875 208.558594 L 253.414062 177.507812 L 214.242188 177.507812 Z M 233.246094 105.304688 L 215.019531 174.402344 L 252.640625 174.402344 L 234.796875 105.304688 L 234.023438 102.007812 Z M 233.246094 105.304688 "/>
</g>
<g clip-path="url(#clip2)" clip-rule="nonzero">
<path style=" stroke:none;fill-rule:nonzero;fill:rgb(80.784314%,94.509804%,58.823529%);fill-opacity:1;" d="M 50.6875 151.691406 C 50.6875 99.3125 93.117188 56.847656 145.457031 56.847656 C 168.765625 56.847656 190.109375 65.269531 206.617188 79.242188 L 198.070312 79.242188 C 183.300781 68.480469 165.121094 62.132812 145.457031 62.132812 C 96.035156 62.132812 55.96875 102.230469 55.96875 151.691406 C 55.96875 201.15625 96.035156 241.253906 145.457031 241.253906 C 165.121094 241.253906 183.300781 234.90625 198.070312 224.144531 L 206.617188 224.144531 C 190.109375 238.113281 168.765625 246.539062 145.457031 246.539062 C 93.117188 246.539062 50.6875 204.074219 50.6875 151.691406 Z M 50.6875 151.691406 "/>
</g>
<g clip-path="url(#clip3)" clip-rule="nonzero">
<path style="fill:none;stroke-width:1;stroke-linecap:butt;stroke-linejoin:miter;stroke:rgb(100%,100%,100%);stroke-opacity:1;stroke-miterlimit:4;" d="M -0.00145074 123.597847 C -0.00145074 55.338805 55.337497 -0.000447967 123.601772 -0.000447967 C 154.00202 -0.000447967 181.83962 10.974755 203.369945 29.183614 L 192.222678 29.183614 C 172.959507 15.159178 149.248638 6.887052 123.601772 6.887052 C 59.143259 6.887052 6.886623 59.141438 6.886623 123.597847 C 6.886623 188.059347 59.143259 240.313734 123.601772 240.313734 C 149.248638 240.313734 172.959507 232.041607 192.222678 218.017171 L 203.369945 218.017171 C 181.83962 236.22094 154.00202 247.201233 123.601772 247.201233 C 55.337497 247.201233 -0.00145074 191.86198 -0.00145074 123.597847 Z M -0.00145074 123.597847 " transform="matrix(0.766724,0,0,0.767355,50.688612,56.848)"/>
</g>
</g>
</svg>